<?xml version="1.0" standalone="no"?>
<!DOCTYPE svg PUBLIC "-//W3C//DTD SVG 20010904//EN"
 "http://www.w3.org/TR/2001/REC-SVG-20010904/DTD/svg10.dtd">
<svg version="1.0" xmlns="http://www.w3.org/2000/svg"
 width="512.000000pt" height="512.000000pt" viewBox="0 0 512.000000 512.000000"
 preserveAspectRatio="xMidYMid meet">
<metadata>
Created by potrace 1.16, written by Peter Selinger 2001-2019
</metadata>
<g transform="translate(0.000000,512.000000) scale(0.100000,-0.100000)"
fill="#000000" stroke="none">
<path d="M1190 4825 c-201 -35 -444 -140 -601 -259 -266 -201 -464 -513 -546
-856 -44 -188 -57 -473 -29 -655 73 -476 357 -928 910 -1448 204 -193 347
-319 930 -820 359 -310 538 -457 576 -476 78 -37 182 -37 260 0 77 37 1148
959 1506 1296 553 520 837 972 910 1448 28 182 15 467 -29 655 -82 343 -280
655 -546 856 -161 122 -402 225 -611 259 -113 19 -344 19 -456 0 -310 -54
-601 -226 -820 -487 -43 -51 -80 -93 -84 -93 -4 0 -41 42 -84 93 -219 261
-510 433 -820 487 -108 18 -358 18 -466 0z"/>
</g>
</svg>
