<?xml version="1.0" standalone="no"?>
<!DOCTYPE svg PUBLIC "-//W3C//DTD SVG 20010904//EN"
 "http://www.w3.org/TR/2001/REC-SVG-20010904/DTD/svg10.dtd">
<svg version="1.0" xmlns="http://www.w3.org/2000/svg"
 width="512.000000pt" height="512.000000pt" viewBox="0 0 512.000000 512.000000"
 preserveAspectRatio="xMidYMid meet">

<g transform="translate(0.000000,512.000000) scale(0.100000,-0.100000)"
fill="#000000" stroke="none">
<path d="M2325 4989 c-585 -60 -1113 -310 -1528 -724 -319 -317 -549 -722
-657 -1154 -119 -478 -98 -963 61 -1430 50 -145 177 -406 259 -530 225 -341
491 -598 832 -802 404 -242 872 -362 1348 -346 656 22 1251 283 1706 749 349
357 572 777 669 1263 34 170 45 289 45 487 0 664 -243 1260 -710 1742 -381
392 -872 645 -1415 727 -151 23 -472 33 -610 18z m1065 -1489 l0 -310 -480 0
-480 0 0 -195 0 -195 430 0 430 0 0 -295 0 -295 -430 0 -430 0 0 -200 0 -200
495 0 495 0 0 -310 0 -310 -855 0 -855 0 0 1310 0 1310 840 0 840 0 0 -310z"/>
</g>
</svg>
